<svg width="28" height="23" viewBox="0 0 28 23" fill="none" xmlns="http://www.w3.org/2000/svg">
<path fill-rule="evenodd" clip-rule="evenodd" d="M27.3585 0.39957C27.7174 0.696632 27.945 1.12577 27.9913 1.5926C28.0375 2.05943 27.8986 2.52573 27.6051 2.88895L11.867 22.351C11.7123 22.5423 11.5197 22.6987 11.3016 22.8101C11.0836 22.9215 10.8448 22.9855 10.6008 22.9978C10.3568 23.0101 10.113 22.9706 9.88501 22.8818C9.65704 22.7929 9.44999 22.6567 9.27722 22.482L0.53385 13.6356C0.366834 13.4723 0.233616 13.2771 0.141969 13.0613C0.0503231 12.8454 0.00208367 12.6132 6.60248e-05 12.3783C-0.00195162 12.1434 0.0422925 11.9104 0.130217 11.693C0.218142 11.4755 0.347987 11.278 0.512175 11.1119C0.676362 10.9457 0.871606 10.8144 1.08651 10.7254C1.30142 10.6364 1.53168 10.5917 1.76387 10.5937C1.99606 10.5958 2.22552 10.6446 2.43886 10.7373C2.65221 10.83 2.84517 10.9648 3.00648 11.1338L10.3841 18.5984L24.8981 0.649039C25.1917 0.285893 25.6159 0.0556061 26.0773 0.00882334C26.5387 -0.0379594 26.9995 0.102593 27.3585 0.39957Z" fill="#006DF0"/>
</svg>
