<svg width="52" height="52" viewBox="0 0 52 52" fill="none" xmlns="http://www.w3.org/2000/svg">
<path d="M26 10.667C29.2182 10.667 32.3551 11.6788 34.9658 13.5605C37.5766 15.4423 39.5292 18.0983 40.5469 21.1514C41.5645 24.2043 41.5953 27.5006 40.6357 30.5723C39.6943 33.5857 37.8442 36.2309 35.3438 38.1533C34.8012 38.7039 34.3515 39.3354 34.0078 40.0234C33.9674 40.1333 33.9176 40.2381 33.8594 40.3379C33.7667 40.5478 33.6823 40.7618 33.6094 40.9805C33.2454 42.0725 33.143 43.2354 33.3115 44.374C33.3259 44.4709 33.333 44.569 33.333 44.667C33.3329 46.6118 32.5607 48.4774 31.1855 49.8525C29.8103 51.2277 27.9448 52 26 52C24.0552 52 22.1897 51.2277 20.8145 49.8525C19.4393 48.4774 18.6671 46.6118 18.667 44.667C18.667 44.569 18.6741 44.4709 18.6885 44.374C18.8571 43.2354 18.7546 42.0725 18.3906 40.9805C18.3177 40.7617 18.2324 40.5479 18.1396 40.3379C18.0815 40.2381 18.0316 40.1333 17.9912 40.0234C17.6474 39.3354 17.198 38.7039 16.6553 38.1533C14.1551 36.231 12.3056 33.5854 11.3643 30.5723C10.4047 27.5006 10.4355 24.2043 11.4531 21.1514C12.4708 18.0983 14.4234 15.4423 17.0342 13.5605C19.6449 11.6788 22.7818 10.667 26 10.667ZM22.5947 41.333C22.7947 42.4678 22.82 43.6291 22.6689 44.7773C22.697 45.6211 23.0438 46.4245 23.6426 47.0234C24.2677 47.6486 25.1159 48 26 48C26.8841 48 27.7323 47.6486 28.3574 47.0234C28.9562 46.4245 29.3021 45.6211 29.3301 44.7773C29.1791 43.6292 29.2053 42.4678 29.4053 41.333H22.5947ZM26 14.667C23.6213 14.667 21.3027 15.4148 19.373 16.8057C17.4434 18.1965 16.0002 20.1594 15.248 22.416C14.4959 24.6726 14.4734 27.1085 15.1826 29.3789C15.8475 31.5074 17.1237 33.3901 18.8486 34.793L19.2002 35.0664L19.3066 35.1523C19.3412 35.1821 19.3748 35.213 19.4072 35.2451C20.0438 35.8753 20.601 36.5767 21.0693 37.333H30.9307C31.399 36.5767 31.9562 35.8753 32.5928 35.2451C32.6576 35.1809 32.7268 35.1212 32.7998 35.0664C34.7027 33.6392 36.1081 31.6494 36.8174 29.3789C37.5266 27.1085 37.5041 24.6726 36.752 22.416C35.9998 20.1594 34.5566 18.1965 32.627 16.8057C30.6973 15.4148 28.3787 14.667 26 14.667ZM4.66699 24C5.77141 24.0002 6.66699 24.8955 6.66699 26C6.66699 27.1045 5.77141 27.9998 4.66699 28H2C0.89543 28 0 27.1046 0 26C0 24.8954 0.89543 24 2 24H4.66699ZM50 24C51.1046 24 52 24.8954 52 26C52 27.1046 51.1046 28 50 28H47.333C46.2286 27.9998 45.333 27.1045 45.333 26C45.333 24.8955 46.2286 24.0002 47.333 24H50ZM7.51953 7.51953C8.2517 6.78736 9.40977 6.7413 10.1953 7.38184L10.3477 7.51953L12.2139 9.38574C12.9949 10.1668 12.9949 11.4328 12.2139 12.2139C11.4328 12.9949 10.1668 12.9949 9.38574 12.2139L7.51953 10.3477L7.38184 10.1953C6.7413 9.40977 6.78736 8.2517 7.51953 7.51953ZM41.6523 7.51953C42.4334 6.73848 43.6994 6.73848 44.4805 7.51953C45.2615 8.30058 45.2615 9.56661 44.4805 10.3477L42.6143 12.2139C41.8332 12.9949 40.5672 12.9949 39.7861 12.2139C39.0051 11.4328 39.0051 10.1668 39.7861 9.38574L41.6523 7.51953ZM24 4.66699V2C24 0.89543 24.8954 0 26 0C27.1046 0 28 0.89543 28 2V4.66699C27.9998 5.77141 27.1045 6.66699 26 6.66699C24.8955 6.66699 24.0002 5.77141 24 4.66699Z" fill="#006DF0"/>
</svg>
