<svg width="34" height="34" viewBox="0 0 34 34" fill="none" xmlns="http://www.w3.org/2000/svg">
<path d="M17 33C25.8368 33 33 25.8368 33 17C33 8.1632 25.8368 1 17 1C8.1632 1 1 8.1632 1 17C1 19.2064 1.448 21.3088 2.2544 23.2208C2.7008 24.2768 2.9232 24.8048 2.952 25.2048C2.9792 25.6048 2.8608 26.0432 2.6256 26.9216L1 33L7.0784 31.3744C7.9568 31.1392 8.3952 31.0224 8.7952 31.048C9.1952 31.0768 9.7232 31.2992 10.7792 31.7456C12.7482 32.5749 14.8634 33.0014 17 33Z" stroke="#0D6EFD" stroke-width="2" stroke-linecap="round" stroke-linejoin="round"/>
<path d="M11.5408 17.6032L12.9344 15.8736C13.5216 15.144 14.2464 14.4656 14.3056 13.4928C14.3184 13.248 14.1456 12.1472 13.8016 9.944C13.6656 9.0784 12.856 9 12.1568 9C11.2448 9 10.7888 9 10.336 9.208C9.7632 9.4688 9.176 10.2032 9.0464 10.8192C8.944 11.3072 9.0208 11.6432 9.1728 12.3152C9.816 15.168 11.328 17.9856 13.6704 20.3296C16.0144 22.672 18.832 24.184 21.6864 24.8272C22.3584 24.9792 22.6928 25.056 23.1808 24.9536C23.7968 24.8256 24.5312 24.2368 24.7936 23.664C25 23.2112 25 22.7552 25 21.8432C25 21.1424 24.9216 20.3344 24.056 20.1984C21.8528 19.8528 20.752 19.6816 20.5072 19.6944C19.536 19.752 18.856 20.4784 18.1264 21.0656L16.3968 22.4576" stroke="#0D6EFD" stroke-width="2" stroke-linecap="round" stroke-linejoin="round"/>
</svg>
