<svg width="32" height="26" viewBox="0 0 32 26" fill="none" xmlns="http://www.w3.org/2000/svg">
<path d="M27.9738 0H4.02617C2.95836 0 1.93429 0.431518 1.17924 1.19963C0.424185 1.96773 0 3.00951 0 4.09578V21.9042C0 22.9905 0.424185 24.0323 1.17924 24.8004C1.93429 25.5685 2.95836 26 4.02617 26H27.9738C29.0416 26 30.0657 25.5685 30.8208 24.8004C31.5758 24.0323 32 22.9905 32 21.9042V4.09578C32 3.00951 31.5758 1.96773 30.8208 1.19963C30.0657 0.431518 29.0416 0 27.9738 0ZM4.02617 1.63831H27.9738C28.5833 1.63691 29.1705 1.87149 29.6161 2.29442C30.0618 2.71736 30.3325 3.29695 30.3734 3.91556C26.3956 6.07814 22.4016 8.22432 18.4077 10.3869C17.8682 10.7329 17.2964 11.0238 16.7006 11.2552C16.2334 11.3493 15.7518 11.341 15.2881 11.2308C14.8243 11.1206 14.389 10.9111 14.0111 10.6163C11.7242 9.38752 9.43734 8.14241 7.16658 6.91367C5.33065 5.93069 3.46251 4.93132 1.62657 3.93195C1.66354 3.31042 1.93259 2.72676 2.37865 2.30039C2.82472 1.87402 3.41409 1.63717 4.02617 1.63831ZM30.3895 21.9042C30.3895 22.556 30.135 23.1811 29.682 23.6419C29.229 24.1028 28.6145 24.3617 27.9738 24.3617H4.02617C3.38549 24.3617 2.77104 24.1028 2.31801 23.6419C1.86498 23.1811 1.61047 22.556 1.61047 21.9042V5.79143C5.41117 7.82294 9.19577 9.88721 12.9965 11.9351C13.6753 12.359 14.4064 12.6895 15.1706 12.9181C16.2889 13.1034 17.4351 12.8643 18.3915 12.2464C20.7267 11.0013 23.0458 9.73976 25.381 8.49464C27.0559 7.57719 28.7146 6.6925 30.3895 5.79143V21.9042Z" fill="#0D6EFD"/>
</svg>
