<svg width="179" height="131" viewBox="0 0 179 131" fill="none" xmlns="http://www.w3.org/2000/svg">
<path d="M48.2166 82.4648C47.5523 79.0161 47.4911 75.8848 48.0329 73.0708C48.6591 70.1322 49.6069 67.4568 50.8764 65.0446C52.1459 62.6324 53.5602 60.4091 55.1192 58.3747C56.7626 56.2156 58.2694 54.1912 59.6395 52.3015C60.9895 50.3073 62.026 48.3736 62.749 46.5002C63.5765 44.6066 63.799 42.667 63.4165 40.6814C62.8126 37.5462 61.0332 35.342 58.0784 34.0686C55.228 32.7751 51.765 32.5209 47.6892 33.306C43.509 34.1112 39.8857 35.8388 36.8195 38.4887C33.8578 41.1185 31.6741 44.4113 30.2684 48.3671L4.49562 40.3254C7.22265 32.5384 12.0503 25.81 18.9785 20.1401C25.8867 14.3657 35.0886 10.3714 46.5842 8.15709C54.6312 6.60707 61.9591 6.38779 68.5678 7.49925C75.2609 8.48607 80.8068 10.8319 85.2055 14.5367C89.6041 18.2416 92.4174 23.2814 93.6454 29.6563C94.4304 33.732 94.4878 37.406 93.8175 40.6783C93.1472 43.9505 92.0407 46.9274 90.498 49.609C89.0597 52.2705 87.4345 54.8054 85.6223 57.2138C83.7901 59.5176 82.0522 61.7491 80.4088 63.9082C78.8699 66.0471 77.6546 68.1779 76.7629 70.3006C75.8711 72.4233 75.6568 74.6864 76.1197 77.0901L48.2166 82.4648ZM70.1397 121.162C65.0189 122.148 60.4744 121.344 56.5062 118.748C52.5379 116.153 50.121 112.608 49.2554 108.114C48.3697 103.516 49.307 99.3794 52.0675 95.7045C54.8078 91.9252 58.7383 89.5423 63.8591 88.556C69.1889 87.5293 73.7756 88.2716 77.6192 90.7827C81.5472 93.1692 83.954 96.6616 84.8398 101.26C85.7054 105.754 84.7781 109.942 82.0579 113.826C79.4423 117.69 75.4695 120.135 70.1397 121.162Z" fill="#006DF0"/>
<path d="M132.906 66.3416C133.38 64.0582 134.142 62.1234 135.192 60.5371C136.326 58.896 137.591 57.4983 138.985 56.344C140.379 55.1898 141.813 54.1883 143.288 53.3395C144.847 52.4359 146.287 51.5799 147.61 50.7716C148.946 49.8942 150.075 48.9736 150.997 48.01C151.987 47.0608 152.619 45.9289 152.892 44.6142C153.322 42.5385 152.795 40.7331 151.309 39.1981C149.892 37.6775 147.834 36.6374 145.136 36.0778C142.368 35.5038 139.706 35.6374 137.151 36.4785C134.664 37.334 132.485 38.7945 130.613 40.86L116.87 29.35C120.53 25.2738 125.207 22.3827 130.901 20.6769C136.61 18.9019 143.27 18.8036 150.881 20.382C156.209 21.4869 160.756 23.2237 164.522 25.5925C168.373 27.9065 171.173 30.7604 172.922 34.1543C174.672 37.5483 175.11 41.3556 174.234 45.5763C173.675 48.2747 172.772 50.5411 171.525 52.3755C170.279 54.2099 168.84 55.7519 167.21 57.0014C165.649 58.2654 164.006 59.404 162.28 60.4173C160.569 61.3614 158.934 62.2853 157.375 63.1889C155.886 64.1069 154.597 65.1025 153.508 66.1758C152.419 67.249 151.71 68.5814 151.38 70.1728L132.906 66.3416ZM136.461 95.657C133.07 94.9539 130.491 93.3003 128.721 90.6962C126.952 88.0921 126.376 85.3024 126.993 82.3272C127.624 79.2828 129.255 76.9869 131.885 75.4395C134.53 73.8229 137.547 73.3662 140.938 74.0693C144.467 74.8011 147.088 76.4273 148.803 78.9478C150.601 81.4136 151.184 84.1686 150.553 87.2131C149.936 90.1883 148.298 92.5188 145.639 94.2046C143.049 95.9047 139.99 96.3889 136.461 95.657Z" fill="#91CC04"/>
</svg>
